<svg width="256" height="256" viewBox="0 0 256 256" fill="none" xmlns="http://www.w3.org/2000/svg">
<path d="M208.5 68.3498V82H47.4126H45.8087L45.916 83.6004L47.4126 83.5C45.916 83.6004 45.916 83.6005 45.916 83.6009L45.9161 83.6026L45.9166 83.6096L45.9185 83.6382L45.926 83.7522C45.9327 83.8531 45.9425 84.0032 45.9551 84.1995C45.9804 84.5922 46.0171 85.1698 46.0626 85.9085C46.1535 87.3859 46.2794 89.5073 46.4193 92.0814C46.6992 97.2304 47.0349 104.187 47.2586 111.421C47.4825 118.66 47.5936 126.158 47.4266 132.397C47.343 135.518 47.1904 138.303 46.9509 140.573C46.707 142.884 46.3854 144.526 46.0192 145.445C44.2854 149.794 40.259 156.556 36.5951 162.32C35.0891 164.69 33.659 166.868 32.5 168.608V68.363L124.842 59.5076L208.5 68.3498Z" fill="#F19138" stroke="black" stroke-width="3"/>
</svg>
