<svg width="256" height="256" viewBox="0 0 256 256" fill="none" xmlns="http://www.w3.org/2000/svg">
<path d="M196 86C201.523 86 206 81.9706 206 77C206 72.0294 201.523 68 196 68C190.477 68 186 72.0294 186 77C186 81.9706 190.477 86 196 86Z" fill="#F19138" stroke="black" stroke-width="3"/>
<path d="M193 75C198.523 75 203 70.9706 203 66C203 61.0294 198.523 57 193 57C187.477 57 183 61.0294 183 66C183 70.9706 187.477 75 193 75Z" fill="#F19138" stroke="black" stroke-width="3"/>
<path d="M201 66C206.523 66 211 61.9706 211 57C211 52.0294 206.523 48 201 48C195.477 48 191 52.0294 191 57C191 61.9706 195.477 66 201 66Z" fill="#F19138" stroke="black" stroke-width="3"/>
<path d="M213 62C218.523 62 223 57.9706 223 53C223 48.0294 218.523 44 213 44C207.477 44 203 48.0294 203 53C203 57.9706 207.477 62 213 62Z" fill="#F19138" stroke="black" stroke-width="3"/>
<path d="M210 82C215.523 82 220 77.9706 220 73C220 68.0294 215.523 64 210 64C204.477 64 200 68.0294 200 73C200 77.9706 204.477 82 210 82Z" fill="#F19138" stroke="black" stroke-width="3"/>
<path d="M216 73C221.523 73 226 68.9706 226 64C226 59.0294 221.523 55 216 55C210.477 55 206 59.0294 206 64C206 68.9706 210.477 73 216 73Z" fill="#F19138" stroke="black" stroke-width="3"/>
<path d="M196 86C201.523 86 206 81.9706 206 77C206 72.0294 201.523 68 196 68C190.477 68 186 72.0294 186 77C186 81.9706 190.477 86 196 86Z" fill="#F19138" stroke="black" stroke-width="3"/>
<path d="M193 75C198.523 75 203 70.9706 203 66C203 61.0294 198.523 57 193 57C187.477 57 183 61.0294 183 66C183 70.9706 187.477 75 193 75Z" fill="#F19138" stroke="black" stroke-width="3"/>
<path d="M201 66C206.523 66 211 61.9706 211 57C211 52.0294 206.523 48 201 48C195.477 48 191 52.0294 191 57C191 61.9706 195.477 66 201 66Z" fill="#F19138" stroke="black" stroke-width="3"/>
<path d="M213 62C218.523 62 223 57.9706 223 53C223 48.0294 218.523 44 213 44C207.477 44 203 48.0294 203 53C203 57.9706 207.477 62 213 62Z" fill="#F19138" stroke="black" stroke-width="3"/>
<path d="M210 82C215.523 82 220 77.9706 220 73C220 68.0294 215.523 64 210 64C204.477 64 200 68.0294 200 73C200 77.9706 204.477 82 210 82Z" fill="#F19138" stroke="black" stroke-width="3"/>
<path d="M216 73C221.523 73 226 68.9706 226 64C226 59.0294 221.523 55 216 55C210.477 55 206 59.0294 206 64C206 68.9706 210.477 73 216 73Z" fill="#F19138" stroke="black" stroke-width="3"/>
<path d="M80 75C85.5228 75 90 70.9706 90 66C90 61.0294 85.5228 57 80 57C74.4772 57 70 61.0294 70 66C70 70.9706 74.4772 75 80 75Z" fill="#F19138" stroke="black" stroke-width="3"/>
<path d="M77 64C82.5228 64 87 59.9706 87 55C87 50.0294 82.5228 46 77 46C71.4772 46 67 50.0294 67 55C67 59.9706 71.4772 64 77 64Z" fill="#F19138" stroke="black" stroke-width="3"/>
<path d="M85 55C90.5228 55 95 50.9706 95 46C95 41.0294 90.5228 37 85 37C79.4772 37 75 41.0294 75 46C75 50.9706 79.4772 55 85 55Z" fill="#F19138" stroke="black" stroke-width="3"/>
<path d="M97 51C102.523 51 107 46.9706 107 42C107 37.0294 102.523 33 97 33C91.4772 33 87 37.0294 87 42C87 46.9706 91.4772 51 97 51Z" fill="#F19138" stroke="black" stroke-width="3"/>
<path d="M94 71C99.5228 71 104 66.9706 104 62C104 57.0294 99.5228 53 94 53C88.4772 53 84 57.0294 84 62C84 66.9706 88.4772 71 94 71Z" fill="#F19138" stroke="black" stroke-width="3"/>
<path d="M100 62C105.523 62 110 57.9706 110 53C110 48.0294 105.523 44 100 44C94.4772 44 90 48.0294 90 53C90 57.9706 94.4772 62 100 62Z" fill="#F19138" stroke="black" stroke-width="3"/>
<path d="M80 75C85.5228 75 90 70.9706 90 66C90 61.0294 85.5228 57 80 57C74.4772 57 70 61.0294 70 66C70 70.9706 74.4772 75 80 75Z" fill="#F19138" stroke="black" stroke-width="3"/>
<path d="M77 64C82.5228 64 87 59.9706 87 55C87 50.0294 82.5228 46 77 46C71.4772 46 67 50.0294 67 55C67 59.9706 71.4772 64 77 64Z" fill="#F19138" stroke="black" stroke-width="3"/>
<path d="M85 55C90.5228 55 95 50.9706 95 46C95 41.0294 90.5228 37 85 37C79.4772 37 75 41.0294 75 46C75 50.9706 79.4772 55 85 55Z" fill="#F19138" stroke="black" stroke-width="3"/>
<path d="M97 51C102.523 51 107 46.9706 107 42C107 37.0294 102.523 33 97 33C91.4772 33 87 37.0294 87 42C87 46.9706 91.4772 51 97 51Z" fill="#F19138" stroke="black" stroke-width="3"/>
<path d="M94 71C99.5228 71 104 66.9706 104 62C104 57.0294 99.5228 53 94 53C88.4772 53 84 57.0294 84 62C84 66.9706 88.4772 71 94 71Z" fill="#F19138" stroke="black" stroke-width="3"/>
<path d="M100 62C105.523 62 110 57.9706 110 53C110 48.0294 105.523 44 100 44C94.4772 44 90 48.0294 90 53C90 57.9706 94.4772 62 100 62Z" fill="#F19138" stroke="black" stroke-width="3"/>
<path d="M109 79C114.523 79 119 74.9706 119 70C119 65.0294 114.523 61 109 61C103.477 61 99 65.0294 99 70C99 74.9706 103.477 79 109 79Z" fill="#F19138" stroke="black" stroke-width="3"/>
<path d="M106 68C111.523 68 116 63.9706 116 59C116 54.0294 111.523 50 106 50C100.477 50 96 54.0294 96 59C96 63.9706 100.477 68 106 68Z" fill="#F19138" stroke="black" stroke-width="3"/>
<path d="M114 59C119.523 59 124 54.9706 124 50C124 45.0294 119.523 41 114 41C108.477 41 104 45.0294 104 50C104 54.9706 108.477 59 114 59Z" fill="#F19138" stroke="black" stroke-width="3"/>
<path d="M126 55C131.523 55 136 50.9706 136 46C136 41.0294 131.523 37 126 37C120.477 37 116 41.0294 116 46C116 50.9706 120.477 55 126 55Z" fill="#F19138" stroke="black" stroke-width="3"/>
<path d="M123 75C128.523 75 133 70.9706 133 66C133 61.0294 128.523 57 123 57C117.477 57 113 61.0294 113 66C113 70.9706 117.477 75 123 75Z" fill="#F19138" stroke="black" stroke-width="3"/>
<path d="M129 66C134.523 66 139 61.9706 139 57C139 52.0294 134.523 48 129 48C123.477 48 119 52.0294 119 57C119 61.9706 123.477 66 129 66Z" fill="#F19138" stroke="black" stroke-width="3"/>
<path d="M109 79C114.523 79 119 74.9706 119 70C119 65.0294 114.523 61 109 61C103.477 61 99 65.0294 99 70C99 74.9706 103.477 79 109 79Z" fill="#F19138" stroke="black" stroke-width="3"/>
<path d="M106 68C111.523 68 116 63.9706 116 59C116 54.0294 111.523 50 106 50C100.477 50 96 54.0294 96 59C96 63.9706 100.477 68 106 68Z" fill="#F19138" stroke="black" stroke-width="3"/>
<path d="M114 59C119.523 59 124 54.9706 124 50C124 45.0294 119.523 41 114 41C108.477 41 104 45.0294 104 50C104 54.9706 108.477 59 114 59Z" fill="#F19138" stroke="black" stroke-width="3"/>
<path d="M126 55C131.523 55 136 50.9706 136 46C136 41.0294 131.523 37 126 37C120.477 37 116 41.0294 116 46C116 50.9706 120.477 55 126 55Z" fill="#F19138" stroke="black" stroke-width="3"/>
<path d="M123 75C128.523 75 133 70.9706 133 66C133 61.0294 128.523 57 123 57C117.477 57 113 61.0294 113 66C113 70.9706 117.477 75 123 75Z" fill="#F19138" stroke="black" stroke-width="3"/>
<path d="M129 66C134.523 66 139 61.9706 139 57C139 52.0294 134.523 48 129 48C123.477 48 119 52.0294 119 57C119 61.9706 123.477 66 129 66Z" fill="#F19138" stroke="black" stroke-width="3"/>
<path d="M144 79C149.523 79 154 74.9706 154 70C154 65.0294 149.523 61 144 61C138.477 61 134 65.0294 134 70C134 74.9706 138.477 79 144 79Z" fill="#F19138" stroke="black" stroke-width="3"/>
<path d="M141 68C146.523 68 151 63.9706 151 59C151 54.0294 146.523 50 141 50C135.477 50 131 54.0294 131 59C131 63.9706 135.477 68 141 68Z" fill="#F19138" stroke="black" stroke-width="3"/>
<path d="M149 59C154.523 59 159 54.9706 159 50C159 45.0294 154.523 41 149 41C143.477 41 139 45.0294 139 50C139 54.9706 143.477 59 149 59Z" fill="#F19138" stroke="black" stroke-width="3"/>
<path d="M161 55C166.523 55 171 50.9706 171 46C171 41.0294 166.523 37 161 37C155.477 37 151 41.0294 151 46C151 50.9706 155.477 55 161 55Z" fill="#F19138" stroke="black" stroke-width="3"/>
<path d="M158 75C163.523 75 168 70.9706 168 66C168 61.0294 163.523 57 158 57C152.477 57 148 61.0294 148 66C148 70.9706 152.477 75 158 75Z" fill="#F19138" stroke="black" stroke-width="3"/>
<path d="M164 66C169.523 66 174 61.9706 174 57C174 52.0294 169.523 48 164 48C158.477 48 154 52.0294 154 57C154 61.9706 158.477 66 164 66Z" fill="#F19138" stroke="black" stroke-width="3"/>
<path d="M144 79C149.523 79 154 74.9706 154 70C154 65.0294 149.523 61 144 61C138.477 61 134 65.0294 134 70C134 74.9706 138.477 79 144 79Z" fill="#F19138" stroke="black" stroke-width="3"/>
<path d="M141 68C146.523 68 151 63.9706 151 59C151 54.0294 146.523 50 141 50C135.477 50 131 54.0294 131 59C131 63.9706 135.477 68 141 68Z" fill="#F19138" stroke="black" stroke-width="3"/>
<path d="M149 59C154.523 59 159 54.9706 159 50C159 45.0294 154.523 41 149 41C143.477 41 139 45.0294 139 50C139 54.9706 143.477 59 149 59Z" fill="#F19138" stroke="black" stroke-width="3"/>
<path d="M161 55C166.523 55 171 50.9706 171 46C171 41.0294 166.523 37 161 37C155.477 37 151 41.0294 151 46C151 50.9706 155.477 55 161 55Z" fill="#F19138" stroke="black" stroke-width="3"/>
<path d="M158 75C163.523 75 168 70.9706 168 66C168 61.0294 163.523 57 158 57C152.477 57 148 61.0294 148 66C148 70.9706 152.477 75 158 75Z" fill="#F19138" stroke="black" stroke-width="3"/>
<path d="M164 66C169.523 66 174 61.9706 174 57C174 52.0294 169.523 48 164 48C158.477 48 154 52.0294 154 57C154 61.9706 158.477 66 164 66Z" fill="#F19138" stroke="black" stroke-width="3"/>
<path d="M177 78C182.523 78 187 73.9706 187 69C187 64.0294 182.523 60 177 60C171.477 60 167 64.0294 167 69C167 73.9706 171.477 78 177 78Z" fill="#F19138" stroke="black" stroke-width="3"/>
<path d="M174 67C179.523 67 184 62.9706 184 58C184 53.0294 179.523 49 174 49C168.477 49 164 53.0294 164 58C164 62.9706 168.477 67 174 67Z" fill="#F19138" stroke="black" stroke-width="3"/>
<path d="M182 58C187.523 58 192 53.9706 192 49C192 44.0294 187.523 40 182 40C176.477 40 172 44.0294 172 49C172 53.9706 176.477 58 182 58Z" fill="#F19138" stroke="black" stroke-width="3"/>
<path d="M194 54C199.523 54 204 49.9706 204 45C204 40.0294 199.523 36 194 36C188.477 36 184 40.0294 184 45C184 49.9706 188.477 54 194 54Z" fill="#F19138" stroke="black" stroke-width="3"/>
<path d="M191 74C196.523 74 201 69.9706 201 65C201 60.0294 196.523 56 191 56C185.477 56 181 60.0294 181 65C181 69.9706 185.477 74 191 74Z" fill="#F19138" stroke="black" stroke-width="3"/>
<path d="M197 65C202.523 65 207 60.9706 207 56C207 51.0294 202.523 47 197 47C191.477 47 187 51.0294 187 56C187 60.9706 191.477 65 197 65Z" fill="#F19138" stroke="black" stroke-width="3"/>
<path d="M177 78C182.523 78 187 73.9706 187 69C187 64.0294 182.523 60 177 60C171.477 60 167 64.0294 167 69C167 73.9706 171.477 78 177 78Z" fill="#F19138" stroke="black" stroke-width="3"/>
<path d="M174 67C179.523 67 184 62.9706 184 58C184 53.0294 179.523 49 174 49C168.477 49 164 53.0294 164 58C164 62.9706 168.477 67 174 67Z" fill="#F19138" stroke="black" stroke-width="3"/>
<path d="M182 58C187.523 58 192 53.9706 192 49C192 44.0294 187.523 40 182 40C176.477 40 172 44.0294 172 49C172 53.9706 176.477 58 182 58Z" fill="#F19138" stroke="black" stroke-width="3"/>
<path d="M194 54C199.523 54 204 49.9706 204 45C204 40.0294 199.523 36 194 36C188.477 36 184 40.0294 184 45C184 49.9706 188.477 54 194 54Z" fill="#F19138" stroke="black" stroke-width="3"/>
<path d="M191 74C196.523 74 201 69.9706 201 65C201 60.0294 196.523 56 191 56C185.477 56 181 60.0294 181 65C181 69.9706 185.477 74 191 74Z" fill="#F19138" stroke="black" stroke-width="3"/>
<path d="M197 65C202.523 65 207 60.9706 207 56C207 51.0294 202.523 47 197 47C191.477 47 187 51.0294 187 56C187 60.9706 191.477 65 197 65Z" fill="#F19138" stroke="black" stroke-width="3"/>
<path d="M80 75C85.5228 75 90 70.9706 90 66C90 61.0294 85.5228 57 80 57C74.4772 57 70 61.0294 70 66C70 70.9706 74.4772 75 80 75Z" fill="#F19138" stroke="black" stroke-width="3"/>
<path d="M77 64C82.5228 64 87 59.9706 87 55C87 50.0294 82.5228 46 77 46C71.4772 46 67 50.0294 67 55C67 59.9706 71.4772 64 77 64Z" fill="#F19138" stroke="black" stroke-width="3"/>
<path d="M85 55C90.5228 55 95 50.9706 95 46C95 41.0294 90.5228 37 85 37C79.4772 37 75 41.0294 75 46C75 50.9706 79.4772 55 85 55Z" fill="#F19138" stroke="black" stroke-width="3"/>
<path d="M97 51C102.523 51 107 46.9706 107 42C107 37.0294 102.523 33 97 33C91.4772 33 87 37.0294 87 42C87 46.9706 91.4772 51 97 51Z" fill="#F19138" stroke="black" stroke-width="3"/>
<path d="M94 71C99.5228 71 104 66.9706 104 62C104 57.0294 99.5228 53 94 53C88.4772 53 84 57.0294 84 62C84 66.9706 88.4772 71 94 71Z" fill="#F19138" stroke="black" stroke-width="3"/>
<path d="M100 62C105.523 62 110 57.9706 110 53C110 48.0294 105.523 44 100 44C94.4772 44 90 48.0294 90 53C90 57.9706 94.4772 62 100 62Z" fill="#F19138" stroke="black" stroke-width="3"/>
<path d="M80 75C85.5228 75 90 70.9706 90 66C90 61.0294 85.5228 57 80 57C74.4772 57 70 61.0294 70 66C70 70.9706 74.4772 75 80 75Z" fill="#F19138" stroke="black" stroke-width="3"/>
<path d="M77 64C82.5228 64 87 59.9706 87 55C87 50.0294 82.5228 46 77 46C71.4772 46 67 50.0294 67 55C67 59.9706 71.4772 64 77 64Z" fill="#F19138" stroke="black" stroke-width="3"/>
<path d="M85 55C90.5228 55 95 50.9706 95 46C95 41.0294 90.5228 37 85 37C79.4772 37 75 41.0294 75 46C75 50.9706 79.4772 55 85 55Z" fill="#F19138" stroke="black" stroke-width="3"/>
<path d="M97 51C102.523 51 107 46.9706 107 42C107 37.0294 102.523 33 97 33C91.4772 33 87 37.0294 87 42C87 46.9706 91.4772 51 97 51Z" fill="#F19138" stroke="black" stroke-width="3"/>
<path d="M94 71C99.5228 71 104 66.9706 104 62C104 57.0294 99.5228 53 94 53C88.4772 53 84 57.0294 84 62C84 66.9706 88.4772 71 94 71Z" fill="#F19138" stroke="black" stroke-width="3"/>
<path d="M100 62C105.523 62 110 57.9706 110 53C110 48.0294 105.523 44 100 44C94.4772 44 90 48.0294 90 53C90 57.9706 94.4772 62 100 62Z" fill="#F19138" stroke="black" stroke-width="3"/>
<path d="M47 84C52.5228 84 57 79.9706 57 75C57 70.0294 52.5228 66 47 66C41.4772 66 37 70.0294 37 75C37 79.9706 41.4772 84 47 84Z" fill="#F19138" stroke="black" stroke-width="3"/>
<path d="M44 73C49.5228 73 54 68.9706 54 64C54 59.0294 49.5228 55 44 55C38.4772 55 34 59.0294 34 64C34 68.9706 38.4772 73 44 73Z" fill="#F19138" stroke="black" stroke-width="3"/>
<path d="M52 64C57.5228 64 62 59.9706 62 55C62 50.0294 57.5228 46 52 46C46.4772 46 42 50.0294 42 55C42 59.9706 46.4772 64 52 64Z" fill="#F19138" stroke="black" stroke-width="3"/>
<path d="M64 60C69.5228 60 74 55.9706 74 51C74 46.0294 69.5228 42 64 42C58.4772 42 54 46.0294 54 51C54 55.9706 58.4772 60 64 60Z" fill="#F19138" stroke="black" stroke-width="3"/>
<path d="M61 80C66.5228 80 71 75.9706 71 71C71 66.0294 66.5228 62 61 62C55.4772 62 51 66.0294 51 71C51 75.9706 55.4772 80 61 80Z" fill="#F19138" stroke="black" stroke-width="3"/>
<path d="M67 71C72.5228 71 77 66.9706 77 62C77 57.0294 72.5228 53 67 53C61.4772 53 57 57.0294 57 62C57 66.9706 61.4772 71 67 71Z" fill="#F19138" stroke="black" stroke-width="3"/>
<path d="M47 84C52.5228 84 57 79.9706 57 75C57 70.0294 52.5228 66 47 66C41.4772 66 37 70.0294 37 75C37 79.9706 41.4772 84 47 84Z" fill="#F19138" stroke="black" stroke-width="3"/>
<path d="M44 73C49.5228 73 54 68.9706 54 64C54 59.0294 49.5228 55 44 55C38.4772 55 34 59.0294 34 64C34 68.9706 38.4772 73 44 73Z" fill="#F19138" stroke="black" stroke-width="3"/>
<path d="M52 64C57.5228 64 62 59.9706 62 55C62 50.0294 57.5228 46 52 46C46.4772 46 42 50.0294 42 55C42 59.9706 46.4772 64 52 64Z" fill="#F19138" stroke="black" stroke-width="3"/>
<path d="M64 60C69.5228 60 74 55.9706 74 51C74 46.0294 69.5228 42 64 42C58.4772 42 54 46.0294 54 51C54 55.9706 58.4772 60 64 60Z" fill="#F19138" stroke="black" stroke-width="3"/>
<path d="M61 80C66.5228 80 71 75.9706 71 71C71 66.0294 66.5228 62 61 62C55.4772 62 51 66.0294 51 71C51 75.9706 55.4772 80 61 80Z" fill="#F19138" stroke="black" stroke-width="3"/>
<path d="M67 71C72.5228 71 77 66.9706 77 62C77 57.0294 72.5228 53 67 53C61.4772 53 57 57.0294 57 62C57 66.9706 61.4772 71 67 71Z" fill="#F19138" stroke="black" stroke-width="3"/>
</svg>
