<svg version="1.2" xmlns="http://www.w3.org/2000/svg" viewBox="0 0 1000 1000" width="1000" height="1000">
	<title>2708011-ai</title>
	<defs>
		<clipPath clipPathUnits="userSpaceOnUse" id="cp1">
			<path d="m301.8 278l-7.56 56.41h-162.72l-6.76-51.48v-0.01c0.45-0.29 0.9-0.54 1.35-0.81 10.21-6.02 33.39-12.95 49.95-17.44 11.68-3.17 23.73-4.74 35.83-4.68l12.88 0.06c8.99 0.04 17.94 0.98 26.75 2.8 14.24 2.95 35.38 7.69 42.61 11.15q4.15 1.96 7.67 4z"/>
		</clipPath>
	</defs>
	<style>
		.s0 { fill: #382a4b } 
		.s1 { fill: #4e3058 } 
		.s2 { fill: #f0f4f5 } 
		.s3 { fill: #e0575a } 
		.s4 { fill: #eaa28e } 
		.s5 { fill: #f4f3ff } 
		.s6 { fill: #915a66 } 
	</style>
	<g id="BACKGROUND">
	</g>
	<g id="OBJECTS">
		<g id="&lt;Group&gt;">
			<g id="&lt;Clip Group&gt;" clip-path="url(#cp1)">
			</g>
			<g id="&lt;Group&gt;">
				<g id="&lt;Group&gt;">
				</g>
				<g id="&lt;Group&gt;">
				</g>
			</g>
			<g id="&lt;Group&gt;">
			</g>
			<g id="&lt;Group&gt;">
				<g id="&lt;Group&gt;">
				</g>
			</g>
		</g>
		<g id="&lt;Group&gt;">
			<g id="&lt;Group&gt;">
				<g id="&lt;Group&gt;">
				</g>
				<g id="&lt;Group&gt;">
				</g>
				<g id="&lt;Group&gt;">
				</g>
			</g>
			<g id="&lt;Group&gt;">
			</g>
			<g id="&lt;Group&gt;">
				<g id="&lt;Group&gt;">
				</g>
				<g id="&lt;Group&gt;">
				</g>
			</g>
		</g>
		<g id="&lt;Group&gt;">
			<g id="&lt;Group&gt;">
				<g id="&lt;Group&gt;">
				</g>
			</g>
			<g id="&lt;Group&gt;">
				<g id="&lt;Group&gt;">
				</g>
			</g>
		</g>
		<g id="&lt;Group&gt;">
			<g id="&lt;Group&gt;">
			</g>
			<g id="&lt;Group&gt;">
			</g>
			<g id="&lt;Group&gt;">
				<g id="&lt;Group&gt;">
				</g>
				<g id="&lt;Group&gt;">
				</g>
			</g>
			<g id="&lt;Group&gt;">
			</g>
			<g id="&lt;Group&gt;">
			</g>
			<g id="&lt;Group&gt;">
			</g>
		</g>
		<g id="&lt;Group&gt;">
			<g id="&lt;Group&gt;">
				<path id="&lt;Path&gt;" class="s0" d="m427.4 672.4l-7.2 59.6h-44.2l1.5-9.9c0.5-6.5 2.2-12.7 4.7-18.6 4.4-9.7 11.5-17.6 20.3-23 0.5-0.3 0.9-0.5 1.4-0.8 7.1-4.1 15.1-6.6 23.5-7.3z"/>
				<path id="&lt;Path&gt;" class="s0" d="m607.7 732h-44.3l-7.6-63.6c5 0.4 9.9 1.5 14.5 3.2 13.5 4.8 24.7 14.7 30.6 28 2.6 5.8 4.2 12 4.7 18.5z"/>
				<g id="&lt;Group&gt;">
					<path id="&lt;Path&gt;" class="s1" d="m450.3 724.7l1.7 7.3h-42.7l-6.8-51.5c0.5-0.3 0.9-0.5 1.4-0.8 6.4-3.8 17.9-7.9 29.7-11.6 2.3 9.4 10.6 37.7 25.1 46.9z"/>
					<path id="&lt;Path&gt;" class="s1" d="m578 675.6l-7.5 56.4h-34.1l1.7-7.3-8.4-9.7c15.4-9.7 23.7-40.9 25.5-48.3 6.5 1.7 12.1 3.4 15.2 4.9q4.1 1.9 7.6 4z"/>
				</g>
			</g>
			<path id="&lt;Path&gt;" class="s2" d="m530.4 715l8.4 9.7-1.7 7.3h-86l-1.7-7.3 8.5-9.7c-14.6-9.2-22.8-37.5-25.2-46.9 7-2.2 14.1-4.2 20.3-5.9 6.5-1.7 13.2-3 19.9-3.8q7.9-0.9 15.9-0.8h12.9q6.8 0 13.6 0.8 6.6 0.7 13.1 2c8.3 1.7 18.7 4 27.5 6.3-1.8 7.4-10.1 38.6-25.5 48.3z"/>
			<path id="&lt;Path&gt;" class="s3" d="m484.4 684.5h23.3l-9 22.1 10.3 25.4h-29.8l11.7-25.4z"/>
			<path id="&lt;Path&gt;" class="s4" d="m511.1 615.6v48.7c0 11.9-8.1 23.1-17.9 23.1-9.9 0-17.9-11.2-17.9-23.1v-48.7c0-8.5 5.7-15.5 12.7-15.5h10.3c7 0 12.8 7 12.8 15.5z"/>
			<path id="&lt;Path&gt;" class="s0" d="m511.1 620.3v22c-6.5 7-15 11.3-24.3 11.3-4 0-7.9-0.8-11.5-2.3v-31c0-8.6 5.7-15.5 12.7-15.5h10.3c7 0 12.8 6.9 12.8 15.5z"/>
			<g id="&lt;Group&gt;">
				<path id="&lt;Path&gt;" class="s4" d="m541.4 580.2c-1.9-0.1-4 0.7-6.1 2-3-12.6-10-25.9-18.4-34.9-3.6-4.5-7.6-7.4-11.9-9.1-2.4-1.1-4.8-1.8-7.1-1.9q-2.4-0.2-4.8-0.1-2.4 0-4.8 0.3c-2.4 0.3-4.7 1.1-7 2.3-4.2 1.9-8.1 4.9-11.4 9.6-8 9.5-14.3 23-16.8 35.7-2.1-1.2-4.3-1.8-6.1-1.6-6.3 0.7-8.1 10.7-6.2 18.2 2.4 9.5 9.7 12.4 16.5 14.1 3.2 6.3 7.7 12.4 12.8 17.4 5.4 6.1 12.3 10.5 20.1 12.2q0.3 0.1 0.6 0.1c0.5 0.1 0.9 0.3 1.4 0.3 0.3 0.1 0.6 0.1 0.9 0.1q0.4 0 0.8 0.1 0.9 0 1.8 0 0.9 0 1.8-0.1 0.4-0.1 0.8-0.1c0.3-0.1 0.6-0.1 0.9-0.1 0.5-0.1 0.9-0.3 1.3-0.4q0.4-0.1 0.7-0.2c7.7-2 14.4-6.8 19.5-13.1 4.8-5.3 9-11.6 11.9-18 6.7-2.1 13.9-5.2 15.8-14.9 1.6-7.6-0.7-17.5-7-17.9z"/>
				<g id="&lt;Group&gt;">
					<path id="&lt;Path&gt;" class="s0" d="m512.8 594.5c0.3 2.2-1.1 4.3-3.1 4.6-2.1 0.3-4-1.3-4.4-3.5-0.3-2.3 1.1-4.4 3.2-4.7 2-0.3 3.9 1.3 4.3 3.6z"/>
					<path id="&lt;Path&gt;" class="s0" d="m479.7 595.3c0.3 2.2-1.1 4.3-3.2 4.6-2 0.3-3.9-1.3-4.3-3.5-0.3-2.3 1.1-4.4 3.1-4.7 2.1-0.3 4 1.3 4.4 3.6z"/>
					<path id="&lt;Path&gt;" class="s0" d="m515.8 586.8c-0.5 0.1-1-0.1-1.3-0.5-4.8-6.6-10.9-2.7-11.2-2.6-0.6 0.4-1.4 0.2-1.8-0.4-0.4-0.5-0.2-1.3 0.4-1.7 2.9-1.9 9.7-3.6 14.6 3.2 0.5 0.6 0.3 1.4-0.2 1.8q-0.3 0.2-0.5 0.2z"/>
					<path id="&lt;Path&gt;" class="s0" d="m496.1 622.7c0.1-0.5 0.5-0.8 1-0.9 8.1-1.2 7.5-8.4 7.4-8.8 0-0.7 0.5-1.3 1.2-1.4 0.7 0 1.3 0.5 1.4 1.2 0.3 3.4-1.3 10.3-9.6 11.5-0.7 0.1-1.3-0.3-1.4-1q-0.1-0.3 0-0.6z"/>
					<path id="&lt;Path&gt;" class="s0" d="m480.5 583.5c-0.2 0.3-0.7 0.4-1.1 0.3-6.5-2.2-8.8 3.5-8.9 3.7-0.2 0.6-0.8 0.8-1.4 0.6-0.5-0.2-0.8-0.8-0.6-1.4 1.1-2.7 4.9-7.2 11.6-4.9 0.6 0.1 0.9 0.8 0.7 1.3q-0.1 0.2-0.3 0.4z"/>
					<path id="&lt;Path&gt;" class="s0" d="m489.5 616.5q-1.3 0.1-2.4-0.6c-2.4-1.5-3.1-4.9-1.8-9.3l2.7-14.4c0.1-0.6 0.6-0.9 1.2-0.8 0.5 0.1 0.9 0.6 0.8 1.2l-2.7 14.5c-1.2 4.1-0.4 6.3 0.8 7 1.3 0.8 3.1 0.3 4.7-1.2 0.4-0.4 1.1-0.4 1.5 0 0.4 0.4 0.4 1 0 1.4-1.6 1.4-3.2 2.2-4.8 2.2z"/>
				</g>
			</g>
			<path id="&lt;Path&gt;" class="s0" d="m478.3 732h-27.8-0.3l-1.7-7.3 8.5-9.7c-14.6-9.2-22.8-37.5-25.2-46.9-0.5-1.9-0.7-3-0.7-3l40.8-9.1 0.2 2.4 6.2 73.6z"/>
			<path id="&lt;Path&gt;" class="s0" d="m531.1 715l8.5 9.7-1.7 7.3h-0.3-27.8 0.1l6.1-73.6 0.2-2.4 40.8 9.1c0 0-0.1 0.6-0.3 1.6-1.5 7.5-10 38.7-25.6 48.3z"/>
			<path id="&lt;Path&gt;" class="s5" d="m526.4 658.7l-15.1-11.3-17.3 37.6-18.6-37.6-13.8 11.3 8.2 40.6 24.2-11.4 24.1 11.4z"/>
			<g id="&lt;Group&gt;">
				<path id="&lt;Path&gt;" class="s6" d="m536.9 543.4c-5.3-5.9-10.7-9.8-18.5-10.4-2.7-0.3-3.8 1-6.3 0.6-3.2-0.6-5.9-2.9-8.9-4-6.4-2.4-13-3.5-19.9-3-10 0.7-11.1 3.3-13.5 11.9-7.4-2-14.4-1.1-19.1 4.9-2.8 3.7-7.7 14.7-1.2 16.9-3.8 4.4-20 9.3-15.2 17.8 3.6 6.4 16.2 2.4 21.1 8.9 0.3 2.4 1.3 4.5 3.2 6 3.5-4.1 1.4-13 1.6-18.4 9.4 6.6 15.9 0.8 21.3-7.8 6.3 11 19.1 5.8 25.2-2.6 3.6 2.7 14.3 15.3 18.1 3.3-0.1 7.8-1.4 27.2 3.4 33.3 7.8 10.1 7.3-18 9.4-23.1 5.2-13 10.5-21.9-0.7-34.3z"/>
			</g>
		</g>
		<g id="&lt;Group&gt;">
			<g id="&lt;Group&gt;">
				<g id="&lt;Group&gt;">
				</g>
			</g>
			<g id="&lt;Group&gt;">
				<g id="&lt;Group&gt;">
				</g>
				<g id="&lt;Group&gt;">
				</g>
			</g>
		</g>
		<g id="&lt;Group&gt;">
			<g id="&lt;Group&gt;">
				<g id="&lt;Group&gt;">
				</g>
				<g id="&lt;Group&gt;">
				</g>
				<g id="&lt;Group&gt;">
				</g>
			</g>
			<g id="&lt;Group&gt;">
			</g>
			<g id="&lt;Group&gt;">
			</g>
			<g id="&lt;Group&gt;">
				<g id="&lt;Group&gt;">
				</g>
				<g id="&lt;Group&gt;">
				</g>
			</g>
		</g>
		<g id="&lt;Group&gt;">
			<g id="&lt;Group&gt;">
			</g>
			<g id="&lt;Group&gt;">
				<g id="&lt;Group&gt;">
				</g>
				<g id="&lt;Group&gt;">
				</g>
			</g>
		</g>
		<g id="&lt;Group&gt;">
			<g id="&lt;Group&gt;">
			</g>
			<g id="&lt;Group&gt;">
				<g id="&lt;Group&gt;">
				</g>
				<g id="&lt;Group&gt;">
				</g>
				<g id="&lt;Group&gt;">
				</g>
			</g>
			<g id="&lt;Group&gt;">
			</g>
			<g id="&lt;Group&gt;">
				<g id="&lt;Group&gt;">
					<g id="&lt;Group&gt;">
					</g>
					<g id="&lt;Group&gt;">
					</g>
				</g>
			</g>
			<g id="&lt;Group&gt;">
			</g>
			<g id="&lt;Group&gt;">
				<g id="&lt;Group&gt;">
					<g id="&lt;Group&gt;">
					</g>
				</g>
			</g>
		</g>
	</g>
	<g id="DESIGNED BY FREEPIK">
		<g id="&lt;Group&gt;">
			<g id="&lt;Group&gt;">
				<g id="&lt;Group&gt;">
					<g id="&lt;Group&gt;">
					</g>
				</g>
				<g id="&lt;Group&gt;">
				</g>
			</g>
		</g>
	</g>
</svg>